# xmcd
#
# Track frame offsets: 
#        150
#        18862
#        32735
#
# Disc length: 610 seconds
#
# Revision: 0
# Processed by: cddbd v1.5.2PL0 Copyright (c) Steve Scherf et al.
# Submitted via: ExactAudioCopy v0.95a5
#
DISCID=17026003
DTITLE=Material Issue - Issue 2
DYEAR=1992
DGENRE=Rock
TTITLE0=When I Get This Way (Over You)
TTITLE1=Valerie Loves Me
TTITLE2=Who Needs Love?
EXTD=
EXTT0=
EXTT1=
EXTT2=
PLAYORDER=
